#tb 0: 1/25
#media_type 0: video
#codec_id 0: rawvideo
#dimensions 0: 416x240
#sar 0: 0/1
0,          0,          0,        1,   149760, 0x88619f80
0,          1,          1,        1,   149760, 0x550bdaf0
0,          2,          2,        1,   149760, 0xb769fa4c
0,          3,          3,        1,   149760, 0x3c2c2e9a
0,          4,          4,        1,   149760, 0x75316bcc
0,          5,          5,        1,   149760, 0x7b9ba7ff
0,          6,          6,        1,   149760, 0x9981ea7b
0,          7,          7,        1,   149760, 0x3f682105
0,          8,          8,        1,   149760, 0x63252c25
0,          9,          9,        1,   149760, 0x44427967
0,         10,         10,        1,   149760, 0x24199a9e
0,         11,         11,        1,   149760, 0xaa30c241
0,         12,         12,        1,   149760, 0xf24faaaf
0,         13,         13,        1,   149760, 0x0291c766
0,         14,         14,        1,   149760, 0xb826e44f
0,         15,         15,        1,   149760, 0xbc2310b8
0,         16,         16,        1,   149760, 0xcfd81d4a
0,         17,         17,        1,   149760, 0xb356484a
0,         18,         18,        1,   149760, 0x02bf515a
0,         19,         19,        1,   149760, 0x729d778c
0,         20,         20,        1,   149760, 0x3ade8453
0,         21,         21,        1,   149760, 0xfedead3d
0,         22,         22,        1,   149760, 0x46bfc8db
0,         23,         23,        1,   149760, 0x8590f422
0,         24,         24,        1,   149760, 0x6d2dfd9d
0,         25,         25,        1,   149760, 0x373f2c82
0,         26,         26,        1,   149760, 0xa12f3ca1
0,         27,         27,        1,   149760, 0x34be4b0d
0,         28,         28,        1,   149760, 0x24f538b9
0,         29,         29,        1,   149760, 0xd1616303
